<svg width="22" height="23" viewBox="0 0 22 23" fill="none" xmlns="http://www.w3.org/2000/svg">
<path fill-rule="evenodd" clip-rule="evenodd" d="M10.3872 0.544233C8.3515 0.758273 6.30283 1.61073 4.68013 2.91887C3.83585 3.5995 2.88817 4.688 2.27603 5.6802C1.14768 7.50913 0.56705 9.91297 0.739187 12.0428C0.91338 14.1982 1.59195 16.0178 2.87233 17.7627C3.30165 18.3478 4.36141 19.4191 4.9516 19.8647C6.97662 21.3936 9.43363 22.1648 11.9553 22.0633C14.4575 21.9625 16.5388 21.2205 18.2565 19.8169C18.7762 19.3923 19.5337 18.5789 19.9345 18.0152C21.473 15.8516 22.1576 12.7685 21.7479 9.84871C21.7065 9.55395 21.6727 9.3052 21.6727 9.296C21.6727 9.28679 19.3819 9.27924 16.5821 9.27924H11.4915L11.5049 11.3744L11.5183 13.4695L14.4361 13.4828C17.285 13.4958 17.3539 13.4984 17.3539 13.5959C17.3539 13.7599 17.0959 14.5271 16.9295 14.8577C16.6798 15.3539 16.3862 15.7561 15.9696 16.1727C15.1527 16.9896 14.1061 17.5114 12.8107 17.7475C12.1499 17.868 10.89 17.8647 10.31 17.741C7.64506 17.1728 5.61017 15.0614 5.1424 12.379C5.04307 11.8093 5.0444 10.7521 5.14523 10.1729C5.60822 7.51247 7.60136 5.43074 10.267 4.82353C10.8467 4.6915 12.2459 4.7025 12.8581 4.84394C13.782 5.05742 14.6365 5.46997 15.3251 6.03512L15.6941 6.33801L17.2025 4.82898L18.7109 3.31991L18.6108 3.20885C18.2088 2.76293 17.0541 1.98086 16.1456 1.53937C14.4129 0.697295 12.3395 0.338986 10.3872 0.544233Z" fill="black" fill-opacity="0.5"/>
</svg>
